<svg width="1512" height="168" viewBox="0 0 1512 168" fill="none" xmlns="http://www.w3.org/2000/svg">
<path d="M60.7485 82.7401C23.7561 83.277 0 0 0 0H1513C1513 0 1509.11 64.2007 1482.37 75.0571C1448.33 88.8719 1454.18 14.4566 1419 5.09932C1355.48 -11.7941 1402.37 155.045 1338.02 167.253C1266.33 180.856 1296.18 4.11615 1223.5 5.09932C1169.36 5.83165 1167.06 101.441 1113.2 95.1511C1065.53 89.5843 1070.37 7.63583 1022.5 5.0993C972.057 2.4263 975.223 94.8545 924.726 95.1511C873.92 95.4495 875.464 -2.60381 825 4.10915C780.408 10.041 790.772 89.8805 746.116 95.1511C696.348 101.025 697.883 -5.06976 649 7.07961C616.639 15.1225 621.265 64.0222 588.273 67.3741C551.81 71.0786 551.664 16.4835 516 7.07961C448.907 -10.6116 454.636 146.242 386.298 136.521C325.604 127.888 348.679 -0.207001 288 8.56485C242.906 15.0838 250.017 94.0158 204.572 95.1511C158.128 96.3114 167.172 -4.0724 121.5 5.59438C85.5086 13.2121 97.3538 82.2088 60.7485 82.7401Z" fill="#FFA7E2"/>
</svg>
