<svg width="390" height="72" viewBox="0 0 390 72" fill="none" xmlns="http://www.w3.org/2000/svg">
<path d="M374.261 35.46C383.845 35.6901 390 0 390 0H-1.99997C-1.99997 0 -0.992371 27.5146 5.93689 32.1673C14.7544 38.0879 13.2383 6.19569 22.3543 2.18542C38.812 -5.05462 26.6634 66.4477 43.3343 71.6799C61.9091 77.5097 54.1761 1.76406 73.006 2.18542C87.0318 2.49928 87.6292 43.4745 101.583 40.779C113.933 38.3933 112.681 3.2725 125.083 2.18541C138.152 1.03984 137.332 40.6519 150.415 40.779C163.578 40.9069 163.178 -1.11591 176.252 1.76106C187.806 4.30331 185.121 38.5202 196.69 40.779C209.585 43.2964 209.187 -2.17275 221.852 3.03412C230.236 6.48109 229.038 27.4381 237.585 28.8746C247.033 30.4623 247.071 7.06437 256.311 3.03412C273.694 -4.54784 272.209 62.6751 289.915 58.5091C305.64 54.8091 299.662 -0.0887146 315.383 3.67065C327.066 6.46447 325.224 40.2925 336.998 40.779C349.031 41.2763 346.688 -1.74532 358.521 2.39759C367.846 5.66233 364.777 35.2323 374.261 35.46Z" fill="#FFA7E2"/>
</svg>
