<svg width="1512" height="168" viewBox="0 0 1512 168" fill="none" xmlns="http://www.w3.org/2000/svg">
<path d="M60.7485 85.2599C23.7561 84.723 0 168 0 168H1513C1513 168 1509.11 103.799 1482.37 92.9429C1448.33 79.1281 1454.18 153.543 1419 162.901C1355.48 179.794 1402.37 12.9554 1338.02 0.746829C1266.33 -12.8561 1296.18 163.884 1223.5 162.901C1169.36 162.168 1167.06 66.5595 1113.2 72.8489C1065.53 78.4157 1070.37 160.364 1022.5 162.901C972.057 165.574 975.223 73.1455 924.726 72.8489C873.92 72.5505 875.464 170.604 825 163.891C780.408 157.959 790.772 78.1195 746.116 72.8489C696.348 66.9751 697.883 173.07 649 160.92C616.639 152.877 621.265 103.978 588.273 100.626C551.81 96.9214 551.664 151.516 516 160.92C448.907 178.612 454.636 21.7582 386.298 31.4789C325.604 40.1122 348.679 168.207 288 159.435C242.906 152.916 250.017 73.9842 204.572 72.8489C158.128 71.6886 167.172 172.072 121.5 162.406C85.5086 154.788 97.3538 85.7912 60.7485 85.2599Z" fill="#FFA7E2"/>
</svg>
