<svg width="390" height="72" viewBox="0 0 390 72" fill="none" xmlns="http://www.w3.org/2000/svg">
<path d="M15.7392 36.54C6.15491 36.3099 0 72 0 72H392C392 72 390.992 44.4854 384.063 39.8327C375.246 33.9121 376.762 65.8043 367.646 69.8146C351.188 77.0546 363.337 5.55231 346.666 0.320069C328.091 -5.50974 335.824 70.2359 316.994 69.8146C302.968 69.5007 302.371 28.5255 288.417 31.221C276.067 33.6067 277.319 68.7275 264.917 69.8146C251.848 70.9602 252.668 31.3481 239.585 31.221C226.422 31.0931 226.822 73.1159 213.748 70.2389C202.194 67.6967 204.879 33.4798 193.31 31.221C180.415 28.7036 180.813 74.1728 168.148 68.9659C159.764 65.5189 160.962 44.5619 152.415 43.1254C142.967 41.5377 142.929 64.9356 133.689 68.9659C116.306 76.5478 117.791 9.32493 100.085 13.4909C84.36 17.1909 90.3384 72.0887 74.6173 68.3294C62.9339 65.5355 64.7764 31.7075 53.0021 31.221C40.9689 30.7237 43.3124 73.7453 31.4792 69.6024C22.1543 66.3377 25.2232 36.7677 15.7392 36.54Z" fill="#FFA7E2"/>
</svg>
