<svg width="56" height="56" viewBox="0 0 56 56" fill="none" xmlns="http://www.w3.org/2000/svg">
<path d="M28.0003 4.66667C28.6192 4.66667 29.2127 4.9125 29.6502 5.35009C30.0878 5.78767 30.3337 6.38117 30.3337 7.00001C30.3337 7.61884 30.0878 8.21234 29.6502 8.64992C29.2127 9.08751 28.6192 9.33334 28.0003 9.33334C24.3084 9.33334 20.6994 10.4281 17.6297 12.4792C14.56 14.5304 12.1674 17.4457 10.7546 20.8566C9.34174 24.2675 8.97208 28.0207 9.69233 31.6417C10.4126 35.2627 12.1904 38.5888 14.801 41.1993C17.4116 43.8099 20.7377 45.5877 24.3586 46.308C27.9796 47.0283 31.7329 46.6586 35.1437 45.2458C38.5546 43.8329 41.47 41.4404 43.5211 38.3706C45.5722 35.3009 46.667 31.6919 46.667 28C46.667 27.3812 46.9128 26.7877 47.3504 26.3501C47.788 25.9125 48.3815 25.6667 49.0003 25.6667C49.6192 25.6667 50.2127 25.9125 50.6502 26.3501C51.0878 26.7877 51.3337 27.3812 51.3337 28C51.3337 40.887 40.8873 51.3333 28.0003 51.3333C15.1133 51.3333 4.66699 40.887 4.66699 28C4.66699 15.113 15.1133 4.66667 28.0003 4.66667ZM28.0003 14C28.6192 14 29.2127 14.2458 29.6502 14.6834C30.0878 15.121 30.3337 15.7145 30.3337 16.3333C30.3337 16.9522 30.0878 17.5457 29.6502 17.9833C29.2127 18.4208 28.6192 18.6667 28.0003 18.6667C26.1544 18.6667 24.3499 19.2141 22.815 20.2396C21.2801 21.2652 20.0839 22.7228 19.3774 24.4283C18.671 26.1337 18.4862 28.0104 18.8463 29.8208C19.2065 31.6313 20.0954 33.2944 21.4007 34.5997C22.706 35.905 24.369 36.7939 26.1795 37.154C27.99 37.5141 29.8666 37.3293 31.572 36.6229C33.2775 35.9165 34.7351 34.7202 35.7607 33.1853C36.7863 31.6505 37.3337 29.846 37.3337 28C37.3337 27.3812 37.5795 26.7877 38.0171 26.3501C38.4547 25.9125 39.0482 25.6667 39.667 25.6667C40.2858 25.6667 40.8793 25.9125 41.3169 26.3501C41.7545 26.7877 42.0003 27.3812 42.0003 28C42.0003 30.7689 41.1792 33.4757 39.6409 35.778C38.1026 38.0803 35.9161 39.8747 33.3579 40.9343C30.7997 41.9939 27.9848 42.2712 25.2691 41.731C22.5533 41.1908 20.0588 39.8574 18.1008 37.8995C16.1429 35.9416 14.8095 33.447 14.2693 30.7313C13.7291 28.0155 14.0064 25.2006 15.066 22.6424C16.1256 20.0843 17.9201 17.8978 20.2223 16.3594C22.5246 14.8211 25.2314 14 28.0003 14ZM43.3327 4.9C43.6421 4.9 43.9388 5.02292 44.1576 5.24171C44.3764 5.46051 44.4993 5.75725 44.4993 6.06667V10.3367C44.4999 10.6457 44.6231 10.9418 44.8419 11.1601C45.0606 11.3784 45.357 11.501 45.666 11.501H49.9337C50.2431 11.501 50.5398 11.6239 50.7586 11.8427C50.9774 12.0615 51.1003 12.3583 51.1003 12.6677V14.8027L46.695 19.208C45.82 20.0832 44.6332 20.5751 43.3957 20.5753H38.729L29.6523 29.6497C29.2123 30.0747 28.6228 30.3099 28.0111 30.3046C27.3993 30.2993 26.814 30.0539 26.3814 29.6212C25.9488 29.1886 25.7034 28.6034 25.6981 27.9916C25.6928 27.3798 25.928 26.7904 26.353 26.3503L35.4297 17.276V12.6093C35.4293 11.3721 35.9203 10.1854 36.7947 9.31001L41.2047 4.9H43.3327Z" fill="white"/>
</svg>
